<svg width="163" height="30" viewBox="0 0 163 30" fill="none" xmlns="http://www.w3.org/2000/svg">
<path d="M19.0007 22.5841L15.4297 24.3386V11.1664L19.0007 9.41194V22.5841ZM23.8485 20.2031L20.2775 21.9575V8.78536L23.8485 7.03093V20.2031ZM25.1253 19.5765V6.40434L28.6963 4.6499V17.8221L25.1253 19.5765Z" fill="white"/>
<path d="M14.1776 20.7879V24.3316L0.917969 17.8221V14.2784L14.1776 20.7879ZM14.1776 15.9702V19.5139L0.917969 13.0044V9.46067L14.1776 15.9702ZM14.1776 11.1594V14.7031L0.917969 8.19358V4.6499L14.1776 11.1594Z" fill="white"/>
<path d="M37.1289 0.474609V20.8172H47.5375C52.4197 20.8172 55.5389 18.6134 55.5389 15.1213C55.5389 12.5445 53.9454 10.5103 51.4365 10.0017C53.5386 9.39146 54.8947 7.66234 54.8947 5.62808C54.8947 2.50889 51.8434 0.508547 47.0968 0.508547H37.1289V0.474609ZM43.13 5.01779H46.7916C47.9783 5.01779 48.7242 5.66197 48.7242 6.713C48.7242 7.79794 47.9783 8.47605 46.7916 8.47605H43.13V5.01779ZM43.13 12.5785H46.7916C48.3173 12.5785 49.3005 13.2565 49.3005 14.3754C49.3005 15.562 48.3512 16.3079 46.7916 16.3079H43.13V12.5785Z" fill="white"/>
<path d="M65.2029 0.474609H59.168V20.8172H65.2029V0.474609Z" fill="white"/>
<path d="M84.4931 5.28904V0.474609H68.8633V5.28904H73.6438V20.8172H79.7126V5.28904H84.4931Z" fill="white"/>
<path d="M97.5644 0.305176C91.2582 0.305176 86.6133 4.67883 86.6133 10.6121C86.6133 16.6131 91.1565 21.0885 97.3609 21.0885C100.446 21.0885 103.769 19.5628 105.973 17.1556L102.48 13.4261C101.09 14.8501 99.1918 15.7656 97.6322 15.7656C94.8859 15.7656 92.7839 13.494 92.7839 10.5104C92.7839 7.52682 94.8859 5.28913 97.6322 5.28913C99.3274 5.28913 101.192 6.37406 102.48 8.00147L105.973 3.89906C103.904 1.69528 100.616 0.305176 97.5644 0.305176Z" fill="white"/>
<path d="M118.552 0.305176C112.178 0.305176 107.465 4.64492 107.465 10.646C107.465 16.647 112.178 21.0885 118.552 21.0885C124.926 21.0885 129.638 16.6131 129.638 10.646C129.638 4.67882 124.926 0.305176 118.552 0.305176ZM118.653 5.35692C121.332 5.35692 123.468 7.59462 123.468 10.6799C123.468 13.7652 121.332 16.0368 118.653 16.0368C115.975 16.0368 113.669 13.7313 113.669 10.6799C113.669 7.62853 115.941 5.35692 118.653 5.35692Z" fill="white"/>
<path d="M139.097 0.474609H133.062V20.8172H139.097V0.474609Z" fill="white"/>
<path d="M162.03 20.8172V0.474609H156.503V11.8325L147.892 0.474609H142.738V20.8172H148.265V9.49317L156.876 20.8172H162.03Z" fill="white"/>
<path d="M42.8826 29.4549V24.3896H41.1029L39.9882 27.0298L38.8734 24.3896H37.0938V29.4549H38.5605V26.6778L39.421 28.9659H40.5162L41.3767 26.6778V29.4549H42.8826Z" fill="white"/>
<path d="M47.341 28.7508L47.5952 29.4744H49.3749L47.3214 24.4092H45.6004L43.4688 29.4744H45.1897L45.444 28.7508H47.341ZM46.9303 27.5383H45.8742L46.4023 26.052L46.9303 27.5383Z" fill="white"/>
<path d="M53.0866 26.7952V27.9686C52.8324 28.0664 52.5977 28.1446 52.4217 28.1446C51.7568 28.1446 51.2874 27.6362 51.2874 26.9321C51.2874 26.2476 51.7568 25.7392 52.4217 25.7392C52.8324 25.7392 53.3409 25.9543 53.6733 26.2672L54.6121 25.1133C54.0645 24.644 53.204 24.3311 52.4217 24.3311C50.7594 24.3311 49.5664 25.4262 49.5664 26.9126C49.5664 28.4184 50.7203 29.5136 52.3044 29.5136C53.028 29.5136 53.9667 29.2398 54.5143 28.8682V26.7757H53.0866V26.7952Z" fill="white"/>
<path d="M58.8801 28.7508L59.1343 29.4744H60.9139L58.8605 24.4092H57.1395L55.0078 29.4744H56.7288L56.983 28.7508H58.8801ZM58.4694 27.5383H57.4133L57.9413 26.052L58.4694 27.5383Z" fill="white"/>
<path d="M65.881 25.4457V24.3896H61.3634V25.6804H63.632L61.2656 28.4183V29.4744H65.9201V28.1837H63.5147L65.881 25.4457Z" fill="white"/>
<path d="M68.4006 24.3896H66.7188V29.4549H68.4006V24.3896Z" fill="white"/>
<path d="M74.3306 29.4549V24.3896H72.8248V26.9907L70.83 24.3896H69.4219V29.4549H70.9473V26.8733L72.9421 29.4549H74.3306Z" fill="white"/>
<path d="M79.6267 25.6608V24.3896H75.3438V29.4549H79.7049V28.1837H77.0256V27.5578H79.392V26.2866H77.0256V25.6608H79.6267Z" fill="white"/>
</svg>
