<svg width="122" height="40" viewBox="0 0 122 40" fill="none" xmlns="http://www.w3.org/2000/svg">
<path d="M26.5779 1.5228C27.4341 1.5228 28.2945 1.5228 29.1544 1.51689C29.1449 4.57968 29.1852 7.64306 29.1354 10.7059C29.1134 12.6827 28.2755 14.7896 26.4556 15.7703C24.3986 16.8131 21.7907 16.8072 19.7741 15.6739C18.0575 14.6737 17.2232 12.6171 17.2695 10.6993C17.279 7.63952 17.2725 4.57968 17.276 1.51985H19.7765C19.783 4.16883 19.7706 6.81485 19.7795 9.46383C19.8234 10.681 19.8264 12.0058 20.5615 13.0433C21.5496 14.3976 23.6225 14.5253 25.015 13.7627C26.275 13.006 26.544 11.4282 26.569 10.0804C26.5903 7.22866 26.5713 4.37455 26.5779 1.5228ZM37.7401 1.57896C39.9063 0.938149 42.3236 1.32713 44.2529 2.47575C44.241 3.37195 44.241 4.26519 44.241 5.15902C42.6217 3.95719 40.4674 3.07341 38.4568 3.77334C37.5875 4.03227 37.0186 5.07389 37.4373 5.91215C37.7811 6.71494 38.7163 6.94845 39.4562 7.24758C41.0505 7.87953 42.8889 8.21885 44.0712 9.56019C45.5907 11.3875 45.2059 14.6406 42.9798 15.752C40.4751 17.0437 37.3452 16.6328 34.9439 15.2879C34.9409 14.3663 34.9409 13.4482 34.9314 12.5266C36.739 13.9123 39.2466 14.734 41.4602 13.8904C42.6674 13.4547 42.8206 11.5849 41.7263 10.9394C40.028 9.91547 37.9426 9.70679 36.3138 8.54576C34.8821 7.52069 34.46 5.48888 35.0543 3.88862C35.4979 2.72758 36.5709 1.92124 37.7401 1.57896ZM60.9861 1.29876C64.3939 4.41179 67.7085 7.63065 71.054 10.8117V1.51985H73.5551V16.5489C70.1437 13.3235 66.8267 10.0024 63.3963 6.79475V16.2208C62.587 16.2267 61.78 16.2267 60.9736 16.2296C60.9778 11.2539 60.9529 6.27926 60.9861 1.29876ZM80.1254 1.51689C83.1431 1.51689 86.1572 1.53226 89.1714 1.50743C89.1898 2.26412 89.1898 3.02021 89.1898 3.77689C87.0266 3.77689 84.8657 3.77334 82.7019 3.77689V7.27241C84.6312 7.27891 86.5574 7.27241 88.4867 7.27891V9.5324C86.5573 9.53516 84.629 9.53516 82.7019 9.5324C82.7019 11.0103 82.7019 12.4929 82.7085 13.9714C84.8657 13.9619 87.0266 13.9714 89.1808 13.9649C89.1838 14.7435 89.1868 15.5244 89.1868 16.3029H80.1195C80.1254 11.375 80.1165 6.44774 80.1254 1.51689ZM96.519 2.09564C98.8639 0.744841 101.86 1.15865 104.161 2.40422C104.205 3.31933 104.205 4.23681 104.202 5.15251C102.532 3.90754 100.283 3.01725 98.2327 3.83305C97.0695 4.24686 96.9347 5.99314 97.9916 6.59671C99.7136 7.5804 101.819 7.77903 103.429 8.98736C105.593 10.5935 105.433 14.4816 102.96 15.7266C100.455 17.0342 97.2945 16.6482 94.8991 15.266C94.8991 14.3568 94.8991 13.4482 94.8837 12.539C96.6283 13.7805 98.8485 14.6246 101 14.0459C101.794 13.8467 102.522 13.1367 102.409 12.2653C102.426 11.5991 101.956 11.0138 101.369 10.7401C99.6798 9.86818 97.687 9.62226 96.1562 8.4429C94.1581 6.90175 94.2899 3.36899 96.519 2.09564ZM111.527 2.14588C113.853 0.744841 116.899 1.12141 119.197 2.40067C119.206 3.30692 119.206 4.20962 119.213 5.11527C117.558 3.87029 115.301 3.02671 113.278 3.84842C112.15 4.2841 112.021 5.98073 113.053 6.59671C114.816 7.61823 117.012 7.77903 118.625 9.08431C120.013 10.1738 120.291 12.1938 119.753 13.7876C119.25 15.2063 117.814 16.034 116.404 16.3366C114.24 16.7818 111.93 16.3833 110.007 15.3068C109.976 14.3823 109.976 13.4577 109.973 12.5331C111.792 13.878 114.272 14.7399 116.483 13.8928C117.686 13.4571 117.871 11.6204 116.786 10.9541C115.041 9.86759 112.84 9.71271 111.204 8.42339C109.276 6.88342 109.366 3.4417 111.527 2.14588ZM1.25 1.51985C3.87162 1.67237 6.59419 1.13619 9.13089 1.95908C11.9479 2.85823 12.3481 7.24462 9.77813 8.6699C12.1201 9.63526 12.6575 12.941 11.0506 14.7712C10.0626 15.9417 8.44921 16.2527 6.98906 16.2964C5.07525 16.3278 3.165 16.2964 1.25119 16.3059V1.51985M3.75583 3.77985C3.75266 5.07488 3.75266 6.36971 3.75583 7.66434C5.10019 7.59932 6.49502 7.85115 7.80791 7.47458C9.39335 7.01703 9.40582 4.4177 7.82988 3.94478C6.50096 3.60841 5.10969 3.83896 3.75583 3.77985ZM3.75583 9.8469C3.74989 11.2474 3.75286 12.6484 3.75583 14.0441C5.29971 13.9353 6.95759 14.3462 8.41774 13.7018C9.86542 12.9984 9.73419 10.6012 8.21763 10.0627C6.77945 9.61635 5.23795 9.94444 3.75583 9.8469ZM51.3571 1.51985H53.8605V16.3059H51.3571V1.51985ZM41.1075 24.4769C43.4429 23.0043 46.5574 23.4128 48.8649 24.7417C48.8524 25.632 48.8524 26.5223 48.8554 27.412C47.1672 26.183 44.8473 25.2336 42.8147 26.1765C41.8112 26.6529 41.68 28.1373 42.5831 28.7817C44.4346 29.9522 46.8953 30.0083 48.4926 31.6086C49.5614 32.6136 49.7396 34.2168 49.4652 35.5865C49.1464 36.9562 47.9457 37.9771 46.6227 38.3649C44.3069 39.0743 41.7079 38.6919 39.6254 37.4871C39.6319 36.5749 39.6349 35.6634 39.6254 34.7512C41.386 36.0677 43.7778 36.9332 45.9416 36.1611C47.248 35.8123 47.5081 33.8142 46.3258 33.1604C44.5783 32.0738 42.3551 31.9373 40.7477 30.5924C38.9253 29.0589 39.0441 25.7591 41.1075 24.4769ZM11.1789 23.8544H13.677C13.683 28.7291 13.6839 33.6057 13.68 38.4844H11.1789V23.8544ZM20.7901 23.5121C24.1172 26.6742 27.4365 29.8493 30.7927 32.9813C30.8051 29.912 30.7956 26.8456 30.7986 23.7799C31.6299 23.7764 32.4638 23.7752 33.3003 23.7764C33.3062 28.7663 33.2937 33.7527 33.3062 38.7427C29.9138 35.5416 26.5874 32.2683 23.2205 29.0388C23.2045 32.1862 23.2205 35.3359 23.214 38.4861H20.7907C20.7875 33.4932 20.7874 28.5019 20.7901 23.5121ZM55.9685 23.8544H58.4702V38.4844H55.9685V23.8544ZM65.6647 23.8544C67.6784 23.8544 69.6942 23.8522 71.7119 23.8479C74.0034 23.8201 76.3702 24.9876 77.4901 27.0265C78.6938 29.1677 78.7716 31.8291 78.0246 34.1358C77.2241 36.5596 74.8412 38.2739 72.3027 38.4377C70.092 38.55 67.8783 38.4536 65.6647 38.4844V23.8544ZM68.2411 26.1108V36.2244C70.0326 36.1593 71.9619 36.4987 73.6281 35.6645C75.2313 34.8422 75.9641 32.9748 75.9172 31.2563C75.9825 29.5195 75.3667 27.571 73.7599 26.6807C72.0741 25.7437 70.0766 26.2297 68.2411 26.1108ZM83.6401 23.8544C86.6352 23.8516 89.6317 23.8516 92.6296 23.8544C92.6296 24.6075 92.6261 25.3607 92.6261 26.1144C90.4631 26.1081 88.3014 26.1081 86.1412 26.1144V29.5319C88.0675 29.5354 89.9957 29.5366 91.926 29.5354V31.7144C89.9967 31.7144 88.0663 31.7109 86.1412 31.7144V36.2214C88.302 36.2279 90.4658 36.2214 92.6296 36.225V38.4814H83.6401V23.8544ZM99.9803 23.8514C102.009 23.8698 104.039 23.8325 106.065 23.8638C107.787 23.907 109.608 24.8942 110.103 26.6245C110.547 28.1285 110.441 29.912 109.471 31.1972C108.877 31.9657 107.914 32.2559 107.014 32.5018C108.771 34.4779 110.514 36.4681 112.245 38.4725C111.255 38.4915 110.269 38.4915 109.287 38.4725C107.611 36.4898 105.902 34.5348 104.218 32.5645C103.662 32.5681 103.108 32.5681 102.556 32.5681C102.55 34.5384 102.553 36.5087 102.553 38.4796C101.693 38.4824 100.833 38.4824 99.9731 38.4796V23.8467M102.553 26.034C102.547 27.4847 102.55 28.9354 102.553 30.3855C103.888 30.311 105.284 30.5942 106.577 30.1804C108.175 29.5419 108.209 26.9881 106.636 26.3077C105.343 25.8153 103.914 26.1049 102.56 26.0363" fill="white"/>
</svg>
