<svg width="171" height="32" viewBox="0 0 171 32" fill="none" xmlns="http://www.w3.org/2000/svg">
<g clip-path="url(#clip0_2270_2969)">
<path d="M47.8279 22.2454C44.6774 22.2454 42.7251 19.574 42.7251 15.8779C42.7251 12.2184 44.3681 9.4921 47.8085 9.4921C50.0698 9.4921 51.5581 10.8644 51.829 12.6759H57.0864C56.8155 10.4253 55.7526 8.44918 53.8971 7.13176C52.3894 6.0339 50.3019 5.35693 47.8279 5.35693C41.4881 5.35693 37.3711 9.89466 37.3711 15.8779C37.3711 21.8977 41.6234 26.3074 47.8667 26.3074C50.8623 26.3074 53.0464 25.5206 54.6702 24.0202C56.1197 22.7028 57.0864 20.8731 57.2214 18.8787H51.9641C51.7324 20.8365 50.1859 22.2454 47.8279 22.2454Z" fill="white"/>
<path d="M66.9264 11.084C62.0556 11.084 58.7891 14.3775 58.7891 18.714C58.7891 23.0505 62.0556 26.344 66.9264 26.344C71.8356 26.344 75.0443 23.0505 75.0443 18.714C75.0443 14.3775 71.8356 11.084 66.9264 11.084ZM66.907 23.0688C64.8001 23.0688 63.6983 21.3305 63.6983 18.714C63.6983 16.0975 64.8001 14.3226 66.907 14.3226C69.0139 14.3226 70.1541 16.0975 70.1541 18.714C70.1351 21.3305 69.0139 23.0688 66.907 23.0688Z" fill="white"/>
<path d="M81.9189 9.55265C82.9529 8.57372 82.9529 6.98657 81.9189 6.00764C80.8844 5.0287 79.208 5.0287 78.174 6.00764C77.1399 6.98657 77.1399 8.57372 78.174 9.55265C79.208 10.5316 80.8844 10.5316 81.9189 9.55265Z" fill="white"/>
<path d="M75.8359 14.7069H77.8652V25.8866H82.6977V11.4683H75.8359V14.7069Z" fill="white"/>
<path d="M94.5842 11.0474C92.4777 11.0474 91.0084 11.889 89.8876 13.4443H89.791V11.4682H85.1328V25.8682H89.9842V17.9089C89.9842 16.134 91.0472 14.8715 92.6515 14.8715C94.2365 14.8715 95.0289 15.9144 95.0289 17.4332V25.8682H99.8804V16.5C99.8804 13.2979 97.9089 11.0474 94.5842 11.0474Z" fill="white"/>
<path d="M111.245 5.75952H102.18V25.8684H110.916C113.584 25.8684 115.729 25.228 117.391 24.0386C119.769 22.3187 121.083 19.4826 121.083 15.9329C121.083 9.78493 117.12 5.75952 111.245 5.75952ZM110.53 21.6966H107.437V9.93133H110.588C113.893 9.93133 115.768 12.2917 115.768 15.9512C115.748 19.6289 113.97 21.6966 110.53 21.6966Z" fill="white"/>
<path d="M135.446 12.9504C134.132 11.8342 132.411 11.1572 130.247 11.1572C125.607 11.1572 122.438 14.4507 122.438 18.7506C122.438 23.1054 125.53 26.399 130.556 26.399C132.488 26.399 134.035 25.9232 135.311 25.0815C136.644 24.2033 137.533 22.9773 137.862 21.6782H133.145C132.721 22.5748 131.889 23.1054 130.614 23.1054C128.623 23.1054 127.502 21.8978 127.192 19.9583H138.132C138.152 17.0124 137.263 14.5239 135.446 12.9504ZM127.212 17.2137C127.54 15.4937 128.487 14.3959 130.324 14.3959C131.889 14.3959 133.03 15.4937 133.204 17.2137H127.212Z" fill="white"/>
<path d="M147.68 16.866C145.747 16.5366 144.027 16.3902 144.027 15.3839C144.027 14.4873 144.955 14.0665 146.134 14.0665C147.468 14.0665 148.395 14.469 148.569 15.7498H153.034C152.802 12.9137 150.483 11.1389 146.173 11.1389C142.577 11.1389 139.601 12.7125 139.601 15.7498C139.601 19.1348 142.423 19.7936 145.071 20.2144C147.1 20.5438 148.936 20.6902 148.936 21.9892C148.936 22.9224 148.009 23.4165 146.559 23.4165C144.955 23.4165 143.95 22.7211 143.756 21.2757H139.176C139.33 24.4594 142.114 26.3989 146.578 26.3989C150.56 26.3989 153.498 24.7705 153.498 21.6233C153.517 17.9455 150.367 17.2868 147.68 16.866Z" fill="white"/>
<path d="M164.904 16.8843L170.258 11.4683H164.672L160.149 16.3354V5.75952H155.375V25.8866H160.149V21.4587L161.618 19.9949L165.271 25.8866H170.877L164.904 16.8843Z" fill="white"/>
<path d="M16.0705 17.2138C16.8819 17.2138 17.5395 16.5912 17.5395 15.8232C17.5395 15.0552 16.8819 14.4326 16.0705 14.4326C15.2593 14.4326 14.6016 15.0552 14.6016 15.8232C14.6016 16.5912 15.2593 17.2138 16.0705 17.2138Z" fill="white"/>
<path d="M27.7854 17.2138C28.5967 17.2138 29.2544 16.5912 29.2544 15.8232C29.2544 15.0552 28.5967 14.4326 27.7854 14.4326C26.9741 14.4326 26.3164 15.0552 26.3164 15.8232C26.3164 16.5912 26.9741 17.2138 27.7854 17.2138Z" fill="white"/>
<path d="M27.7854 28.3203C28.5967 28.3203 29.2544 27.6977 29.2544 26.9296C29.2544 26.1617 28.5967 25.5391 27.7854 25.5391C26.9741 25.5391 26.3164 26.1617 26.3164 26.9296C26.3164 27.6977 26.9741 28.3203 27.7854 28.3203Z" fill="white"/>
<path d="M32.0944 4.46048C31.9397 2.42947 30.2195 0.782705 28.074 0.636326C26.7017 0.544839 25.4646 1.03887 24.5949 1.88055C23.9377 2.52095 23.0486 2.9052 22.1015 2.9052H21.7536C20.7872 2.9052 19.8787 2.52095 19.2022 1.86225C18.4097 1.09376 17.308 0.636326 16.0903 0.636326C14.8726 0.636326 13.7708 1.11206 12.9784 1.86225C12.3019 2.52095 11.3934 2.9052 10.427 2.9052H10.0984C9.15132 2.9052 8.24286 2.55755 7.58567 1.91714C7.45039 1.78906 7.31506 1.66098 7.17978 1.55119C5.53687 0.288675 3.12077 0.32527 1.53582 1.66098C-0.377711 3.25285 -0.455025 6.03406 1.32321 7.71739C1.34254 7.73569 1.36187 7.75399 1.3812 7.77229C2.07703 8.3944 2.44427 9.27271 2.44427 10.1693V10.4803C2.44427 11.3952 2.03837 12.2552 1.34254 12.8956C0.530734 13.6458 0.0475197 14.6887 0.0475197 15.8415C0.0475197 16.9942 0.550065 18.0371 1.34254 18.7873C2.03837 19.4278 2.44427 20.2877 2.44427 21.2026V21.6234C2.44427 22.52 2.03837 23.3617 1.36187 23.9838C0.511408 24.7706 -0.010466 25.8867 0.0475197 27.1126C0.144163 29.2717 1.99971 31.01 4.26116 31.0832C5.57552 31.1198 6.75456 30.6257 7.58567 29.8024C8.24286 29.162 9.13195 28.7594 10.0791 28.7594H10.4463C11.3934 28.7594 12.2825 29.1437 12.9397 29.8024C13.8095 30.6623 15.0659 31.1563 16.4382 31.0649C18.5837 30.9185 20.3232 29.2717 20.4779 27.2224C20.6518 24.7889 18.6417 22.7762 16.1096 22.7762C14.9112 22.7762 13.8095 23.2336 13.017 23.9838C12.3405 24.6242 11.4321 25.0084 10.485 25.0084H10.0791C9.13195 25.0084 8.2042 24.6608 7.5277 24.0021C7.50837 23.9838 7.50837 23.9838 7.48904 23.9655C6.79321 23.3251 6.38731 22.4651 6.38731 21.5502V21.1843C6.38731 20.2694 6.79321 19.4095 7.48904 18.769C8.30083 18.0188 8.78408 16.9759 8.78408 15.8232C8.78408 14.6704 8.28151 13.6275 7.48904 12.8773C6.79321 12.2369 6.38731 11.3769 6.38731 10.462V10.1327C6.38731 9.21781 6.79321 8.3578 7.46972 7.71739C7.48904 7.69913 7.48904 7.69913 7.50837 7.68083C7.5277 7.66253 7.5277 7.66253 7.54702 7.64423C8.22353 7.00382 9.13195 6.61957 10.0984 6.61957H10.4463C11.4128 6.61957 12.3212 7.00382 12.9977 7.66253C13.7902 8.431 14.8919 8.88845 16.1096 8.88845C17.3273 8.88845 18.429 8.4127 19.2215 7.66253C19.898 7.00382 20.8065 6.61957 21.7729 6.61957H22.0821C23.0486 6.61957 23.957 7.00382 24.6335 7.66253C25.426 8.431 26.5277 8.88845 27.7455 8.88845C30.2582 8.90675 32.2683 6.89402 32.0944 4.46048Z" fill="white"/>
</g>
<defs>
<clipPath id="clip0_2270_2969">
<rect width="170.831" height="30.5675" fill="white" transform="translate(0.0429688 0.625488)"/>
</clipPath>
</defs>
</svg>
