<svg width="119" height="30" viewBox="0 0 119 30" fill="none" xmlns="http://www.w3.org/2000/svg">
<path d="M117.628 14.5844L116.545 14.8768C115.516 11.3677 113.788 9.86444 111.351 9.86444C109.64 9.86444 108.427 10.9908 108.427 12.7887C108.427 14.4999 109.835 15.4205 113.663 16.966C117.186 18.2614 118.647 19.847 118.647 22.6196C118.647 26.8381 115.333 29.484 109.889 29.484C107.271 29.484 104.306 28.8991 102.635 28.2309L102.426 22.3694L103.455 22.1604C105 26.1709 106.978 27.6883 109.552 27.6883C111.78 27.6883 112.95 26.1428 112.95 24.555C112.95 22.9672 112.045 22.0488 108.564 20.7968C105.249 19.7105 102.98 18.2906 102.98 14.7674C102.98 11.3017 106.029 8.36224 111.212 8.36224C113.663 8.36224 115.89 8.7803 117.353 9.44855L117.628 14.5844ZM95.2084 16.4223C95.334 13.666 94.7752 9.68357 92.5073 9.68357C90.1819 9.68357 88.9007 13.4017 88.8595 16.5902L95.2084 16.4223ZM93.064 8.34708C98.7717 8.34708 101.529 12.5244 101.571 18.0101H88.722C88.6787 22.8698 91.2563 26.5446 96.0738 26.5446C98.1749 26.5446 99.3879 25.9597 100.668 25.0413L101.267 25.7095C99.859 27.6309 96.9348 29.4677 93.0358 29.4677C86.7703 29.4677 82.4262 25.1658 82.4262 19.0942C82.4121 13.6086 85.9764 8.34491 93.064 8.34491M74.5459 18.5094C74.4202 14.1772 72.8346 10.7266 69.7837 10.7266C69.058 10.7266 68.5024 10.8522 67.6392 11.1446L67.8883 27.8388C68.1948 27.9645 68.9172 28.0479 69.4339 28.0479C72.3993 28.0479 74.5437 23.8564 74.5437 18.5105M80.9067 18.1856C80.9067 25.05 76.5744 29.4775 69.2248 29.4775C66.6071 29.4775 63.8919 29.0594 61.5395 28.5168C61.7485 25.7604 61.7485 8.68933 61.5395 5.47265C61.3304 3.8015 60.8571 3.00762 59.5618 2.84083L58.6986 2.75743V1.99171L67.7638 0.320557C67.7205 1.72853 67.6381 5.47265 67.6381 9.85794C69.2259 9.06406 70.687 8.60485 72.6635 8.60485C77.3835 8.60485 80.8947 12.6154 80.8947 18.1845M57.8257 14.4566C55.0271 12.6187 52.0205 13.4125 51.4205 14.4566C51.1562 17.6733 51.2114 22.6163 51.4638 25.1637C51.5894 26.8348 52.0627 27.5442 53.357 27.6699L55.0682 27.8367V28.923H42.2632V27.8367L43.2521 27.6699C44.4911 27.5442 44.9232 26.8359 45.0066 25.1637C45.3131 22.4485 45.3965 16.7538 45.0066 13.6205C44.9232 11.8248 44.4911 11.1554 43.2521 10.9887L42.2632 10.863V10.1114L51.4107 8.35683L51.2851 13.0356C53.4295 8.19004 57.6903 7.60519 60.0015 8.90052L57.8257 14.4566ZM27.8066 18.9404C27.8066 24.0503 29.1853 28.2276 31.9699 28.2276C34.9775 28.2276 35.8407 24.1337 35.8407 18.9404C35.8407 13.7472 34.5042 9.69549 31.6775 9.69549C28.6449 9.69549 27.8066 13.6638 27.8066 18.9404ZM42.3152 18.8571C42.3152 24.7185 38.4444 29.471 31.5388 29.471C24.7437 29.471 21.3191 24.946 21.3191 19.0141C21.3191 13.1938 25.1899 8.34816 32.0955 8.34816C38.8906 8.34816 42.3152 12.9013 42.3152 18.8462M24.5315 8.76514L23.1235 9.1832C21.9256 5.07517 19.8093 2.73685 16.1616 2.73685H11.3994C11.1351 5.46615 11.0095 9.68465 11.1351 14.2389L14.3085 14.0721C16.4529 14.0721 17.3573 12.5266 17.8826 10.2814H19.0804V19.7776H17.862C17.3465 17.4816 16.454 15.922 14.2879 15.7953L11.1146 15.7519C11.1146 19.1354 11.1579 22.0315 11.3788 23.786C11.5879 26.2922 12.2843 27.4338 14.1222 27.671L15.8486 27.8377V28.924H0.305664V27.8377L1.601 27.671C3.3967 27.4219 4.13535 26.2922 4.34438 23.786C4.69096 19.6921 4.7776 10.9486 4.34438 6.08891C4.13535 3.48958 3.39779 2.45526 1.601 2.24623L0.305664 2.0372V0.910822H24.5011L24.5315 8.76514Z" fill="white"/>
</svg>
