<svg width="35" height="35" viewBox="0 0 35 35" fill="none" xmlns="http://www.w3.org/2000/svg">
<path fill-rule="evenodd" clip-rule="evenodd" d="M0 0H35V35H0V0ZM11.1589 8.25206C11.1623 6.64103 9.84022 5.31701 8.23718 5.3157C6.61471 5.31447 5.28746 6.62928 5.28746 8.24092C5.28715 9.90264 6.65779 11.2053 8.21744 11.1737C9.75512 11.2104 11.155 9.93896 11.1589 8.25206ZM9.94028 29.6808H6.50572C6.05997 29.6808 5.69863 29.3195 5.69863 28.8737V14.2217C5.69863 13.776 6.05997 13.4146 6.50572 13.4146H9.94028C10.386 13.4146 10.7474 13.776 10.7474 14.2217V28.8738C10.7473 29.3195 10.386 29.6808 9.94028 29.6808ZM24.1508 12.9994C27.2225 12.9994 29.7126 15.4895 29.7126 18.5612H29.7125V29.3494C29.7125 29.5344 29.5624 29.6845 29.3773 29.6844L24.988 29.6834C24.8031 29.6833 24.6531 29.5333 24.6531 29.3483V20.3007C24.6531 19.5185 24.3362 18.8101 23.8235 18.2978C23.3041 17.778 22.5833 17.4595 21.7883 17.4684C20.2308 17.486 18.9886 18.7793 18.9886 20.3368V29.3471C18.9886 29.5322 18.8385 29.6823 18.6535 29.6822L14.275 29.6811C14.09 29.6811 13.9401 29.5311 13.9401 29.3461V13.7498C13.9401 13.5647 14.0902 13.4147 14.2752 13.4147H18.5602C18.7453 13.4147 18.8953 13.5648 18.8953 13.7498V15.5483C18.8957 15.5475 18.9127 15.5498 18.9413 15.5541C19.0241 15.4043 19.1143 15.2592 19.2116 15.1195C20.1047 13.8379 21.5894 12.9994 23.2699 12.9994H24.1508Z" fill="white"/>
</svg>
