<svg width="108" height="40" viewBox="0 0 108 40" fill="none" xmlns="http://www.w3.org/2000/svg">
<path fill-rule="evenodd" clip-rule="evenodd" d="M38.8618 12.007V23.7475H41.7517H44.6417V19.2319C44.6417 16.2517 44.6417 14.6261 44.6417 14.4454C44.732 13.9939 44.8223 13.5423 45.0932 13.1811C45.4545 12.5489 46.0867 12.278 46.8091 12.3683C47.8026 12.4586 48.4347 13.0005 48.6154 14.1745C48.6154 14.3551 48.6154 16.1614 48.6154 19.0513V23.6572H51.5053H54.3953V18.2385C54.3953 13.6327 54.3953 12.7295 54.305 12.278C54.1244 10.6524 53.5825 9.38802 52.5891 8.48491C51.7763 7.67211 50.7828 7.22056 49.6088 7.03994C49.1572 6.94963 47.8929 7.03994 47.5316 7.13025C46.4479 7.40118 45.6351 7.76243 44.9126 8.57523L44.4611 8.93647V4.60154V0.266602H41.5711H38.6811V12.007H38.8618ZM100.273 0.447225C100.093 0.808469 94.2225 14.9873 94.2225 14.9873C94.2225 14.9873 95.7578 14.9873 97.6543 14.9873H101.086L104.157 7.67212C105.873 3.60811 107.227 0.266602 107.227 0.266602C107.227 0.266602 105.692 0.266602 103.795 0.266602H100.364L100.273 0.447225ZM26.2182 7.13025C24.9539 7.31087 23.9604 7.67212 22.967 8.30429C20.9802 9.56865 19.7158 11.7361 19.3546 14.2648C19.1739 15.4389 19.2643 16.8838 19.5352 17.9676C20.2577 20.7672 22.1542 22.9347 24.5926 23.7475C25.4957 24.0184 25.857 24.1087 26.9407 24.1087C27.7535 24.1087 28.0244 24.1087 28.2954 24.0184C29.4694 23.7475 30.2822 23.2959 31.0047 22.5735L31.3659 22.2122V22.9347V23.6572H34.1656H36.9652V15.5292V7.40118H34.1656H31.3659V8.12367V8.84616L31.095 8.57523C30.4628 7.85274 29.5597 7.40118 28.3857 7.13025C28.0244 7.03994 27.8438 7.03994 27.1213 7.03994C26.6698 7.13025 26.3085 7.13025 26.2182 7.13025ZM63.0652 7.13025C61.5299 7.31087 59.9043 8.03336 58.7302 8.93647C56.4724 10.833 55.2984 13.8133 55.75 16.8839C56.2015 20.3157 58.6399 22.9347 62.0717 23.8378C62.7942 24.0184 63.5167 24.1087 64.4198 24.1087C66.0454 24.1087 67.2195 23.8378 68.4838 23.2056C71.0125 21.9413 72.6381 19.6835 72.9994 16.8839C73.0897 16.1614 73.0897 14.9873 72.9994 14.3551C72.8188 13.0005 72.2769 11.6458 71.4641 10.5621C71.1028 10.1105 70.3804 9.29771 69.9288 8.93647C68.6644 7.94305 67.2195 7.31087 65.5939 7.13025C64.9617 7.03994 63.6973 7.03994 63.0652 7.13025ZM81.4886 7.13025C79.9533 7.31087 78.4181 7.94305 77.244 8.93647C76.7924 9.29771 75.9796 10.1105 75.7087 10.5621C74.8959 11.6458 74.4444 13.0005 74.1734 14.3551C74.0831 14.9873 74.0831 16.2517 74.1734 16.8839C74.7153 20.4963 77.3343 23.2959 80.9468 24.0184C81.6693 24.1991 82.0305 24.1991 82.8433 24.1991C84.3786 24.1991 85.7332 23.9281 86.9976 23.2056C90.3391 21.4897 92.1453 17.6967 91.3325 13.8133C90.6101 10.2008 87.7201 7.5818 84.0173 7.13025C83.3852 7.03994 82.1208 7.03994 81.4886 7.13025ZM0.660156 7.49149C0.660156 7.49149 2.19545 11.1942 4.09198 15.7098C5.98851 20.2254 7.5238 23.9281 7.5238 23.9281C7.5238 23.9281 6.98194 25.2828 6.25945 26.9084C5.53696 28.534 4.99509 29.7983 4.99509 29.8887C4.99509 29.979 6.34976 29.8887 8.06567 29.8887H11.1362L15.7421 18.7804C18.2708 12.6392 20.348 7.67211 20.348 7.5818C20.348 7.5818 19.7158 7.49149 17.2774 7.5818H14.2068L12.3103 12.278C11.4975 14.8067 10.6847 16.9742 10.6847 16.9742C10.6847 16.9742 9.87189 14.8067 8.78816 12.278L6.98194 7.5818H3.82105C2.10513 7.49149 0.660156 7.49149 0.660156 7.49149ZM29.0179 12.3683C30.1919 12.6392 31.095 13.5423 31.4563 14.7164C31.5466 15.1679 31.5466 15.9807 31.4563 16.4323C31.1853 17.6063 30.2822 18.5095 29.1082 18.7804C28.6566 18.8707 27.8438 18.8707 27.3923 18.7804C26.3988 18.5095 25.4957 17.787 25.1345 16.8839C24.6829 15.8904 24.8635 14.6261 25.4054 13.723C26.2182 12.5489 27.5729 12.0974 29.0179 12.3683ZM65.052 12.4586C66.3164 12.6392 67.3098 13.6327 67.5807 14.897C67.671 15.3486 67.671 16.071 67.5807 16.5226C67.3098 17.6966 66.4067 18.5094 65.3229 18.8707C64.9617 18.961 63.9683 18.961 63.607 18.8707C62.7039 18.5998 61.9814 17.9676 61.5299 17.1548C61.2589 16.6129 61.2589 16.342 61.2589 15.7098C61.2589 15.1679 61.3492 14.897 61.5299 14.4454C61.8008 13.9036 62.162 13.3617 62.7039 13.0005C63.2458 12.4586 64.1489 12.278 65.052 12.4586ZM83.3852 12.4586C84.4689 12.6392 85.372 13.3617 85.7332 14.3551C85.9139 14.8067 86.0042 15.0776 86.0042 15.6195C86.0042 16.2517 85.9139 16.5226 85.7332 17.0645C85.372 17.8773 84.5592 18.5095 83.6561 18.7804C83.2949 18.8707 82.3014 18.8707 81.9402 18.7804C80.8564 18.5095 79.9533 17.6063 79.6824 16.4323C79.5921 15.9807 79.5921 15.1679 79.6824 14.7164C80.0436 13.2714 81.308 12.278 82.753 12.278C82.9336 12.3683 83.2045 12.3683 83.3852 12.4586ZM95.6675 16.4323C93.9516 16.6129 92.6872 17.8773 92.326 19.5029C92.2356 19.9544 92.2356 20.7672 92.326 21.2188C92.6872 22.6638 93.7709 23.6572 95.2159 24.0184C95.3965 24.0184 95.7578 24.1087 96.0287 24.1087C97.1124 24.1087 98.0156 23.7475 98.7381 23.025C99.5508 22.2122 99.8218 21.3994 99.8218 20.3157C99.8218 18.961 99.1896 17.787 98.1059 17.1548C97.3834 16.5226 96.39 16.342 95.6675 16.4323ZM48.0735 25.2828C46.8995 25.644 46.3576 26.9987 46.9898 27.9921C47.1704 28.2631 47.5316 28.6243 47.8026 28.7146C48.0735 28.8049 48.0735 28.8049 48.6154 28.8049C49.0669 28.8049 49.1572 28.8049 49.4282 28.7146C49.7894 28.534 50.1507 28.1727 50.3313 27.8115C50.7828 26.9084 50.3313 25.8247 49.4282 25.3731C49.1572 25.1925 49.0669 25.1925 48.7057 25.1925C48.3444 25.1925 48.2541 25.1925 48.0735 25.2828ZM43.1967 25.3731C41.6614 25.644 40.668 26.6375 40.2164 28.2631C40.1261 28.534 40.1261 28.8049 40.1261 29.1662V29.7983H39.4939H38.8618V31.153V32.5077H39.4939H40.1261V35.7589V39.0101H41.842H43.5579V35.7589V32.5077H44.732H45.906V31.153V29.7983H44.732H43.5579V29.5274C43.6483 28.8952 43.9192 28.4437 44.4611 28.3534C44.8223 28.2631 45.3642 28.2631 45.7254 28.4437C45.906 28.534 45.9963 28.534 45.9963 28.534C45.9963 28.534 45.9963 27.9018 45.9963 27.089V25.644L45.7254 25.5537C45.3642 25.3731 44.9126 25.3731 44.2804 25.3731C43.8289 25.2828 43.4676 25.3731 43.1967 25.3731ZM56.924 29.6177C56.2015 29.7983 55.6596 30.1596 55.2984 30.6111L55.1178 30.8821V30.3402V29.7983H53.4019H51.686V34.4042V39.0101H53.4019H55.1178V36.4814C55.1178 35.0364 55.1178 33.8623 55.1178 33.6817C55.2081 33.3205 55.3887 32.9592 55.5693 32.7786C56.0209 32.4174 56.8337 32.5077 57.1949 32.9592C57.4659 33.3205 57.4659 33.3205 57.4659 36.2104V38.9198H59.1818H60.8977V35.8492C60.8977 32.598 60.8977 32.2367 60.7171 31.6046C60.5364 31.0627 60.3558 30.6111 59.9043 30.2499C59.543 29.8887 59.1818 29.6177 58.6399 29.5274C58.1884 29.5274 57.2852 29.5274 56.924 29.6177ZM65.5036 29.5274C64.9617 29.6177 64.1489 29.8887 63.6973 30.2499C62.7039 30.9724 62.0717 32.0561 61.8008 33.4108C61.7105 33.9527 61.7105 34.9461 61.8008 35.4879C61.9814 36.3007 62.2523 37.1135 62.7039 37.6554C63.3361 38.4682 64.1489 39.0101 65.1423 39.1907C65.6842 39.281 66.5873 39.281 67.0388 39.1004C67.5807 38.9198 67.942 38.7391 68.3935 38.3779L68.7548 38.0167V38.4682V38.9198H70.4707H72.1866V34.3139V29.708H70.4707H68.7548V30.1596V30.6111L68.4838 30.5208C68.0323 30.0693 67.4001 29.708 66.6776 29.6177C66.4067 29.5274 65.7745 29.5274 65.5036 29.5274ZM78.5987 29.6177C77.9665 29.708 77.3343 30.1596 76.9731 30.6111L76.7924 30.7918V30.2499V29.708H75.0765H73.3606V34.3139V38.9198H75.0765H76.7924V36.3007C76.7924 33.5011 76.7924 33.5011 76.9731 33.0495C77.1537 32.6883 77.5149 32.5077 77.8762 32.5077C78.2374 32.5077 78.4181 32.598 78.689 32.7786C79.0502 33.1399 79.0502 33.0495 79.0502 36.1201V38.8295H80.7661H82.482V35.4879C82.482 32.1464 82.482 32.1464 82.3917 31.7852C82.3014 31.6046 82.2111 31.2433 82.1208 30.9724C81.9402 30.6111 81.8499 30.5208 81.5789 30.2499C81.2177 29.8887 80.9468 29.708 80.5855 29.5274C79.9533 29.5274 79.2309 29.4371 78.5987 29.6177ZM87.5395 29.6177C86.0042 29.8887 84.8301 30.6111 84.1077 31.8755C83.927 32.2367 83.7464 32.6883 83.5658 33.1399C83.4755 33.5914 83.4755 33.6817 83.4755 34.4042C83.4755 35.217 83.4755 35.4879 83.7464 36.1201C84.2883 37.6554 85.5526 38.8295 87.2685 39.1907C87.5395 39.281 87.8104 39.281 88.4426 39.281C89.3457 39.281 89.7069 39.1907 90.3391 38.9198L90.7004 38.7391V37.2039V35.6686L90.4294 35.8492C89.9779 36.1201 89.7069 36.2104 89.1651 36.2104C88.6232 36.2104 88.3523 36.2104 87.991 36.0298C87.6298 35.8492 87.3589 35.5783 87.1782 35.217C87.0879 34.9461 87.0879 34.9461 87.0879 34.4945C87.0879 34.1333 87.0879 34.043 87.1782 33.772C87.4492 33.0495 88.0813 32.6883 88.9845 32.598C89.6166 32.598 89.8876 32.598 90.7907 33.0495C90.7907 33.0495 90.7907 32.3271 90.7907 31.5143V29.979L90.5197 29.8887C89.5263 29.5274 88.4426 29.4371 87.5395 29.6177ZM95.3062 29.6177C92.6872 30.0693 91.0616 32.3271 91.2422 34.9461C91.3325 35.8492 91.6035 36.662 92.055 37.2942C92.6872 38.2876 93.6806 38.9198 94.945 39.1907C95.4869 39.281 96.9318 39.281 97.564 39.1907C98.4671 39.0101 99.2799 38.5585 99.9121 37.9263C100.183 37.6554 100.635 37.0232 100.635 37.0232C100.635 37.0232 100.002 36.7523 99.1896 36.4814L97.7446 35.9395L97.564 36.1201C97.2931 36.3911 97.1125 36.4814 96.7512 36.5717C95.7578 36.8426 94.7644 36.3007 94.5837 35.3976V35.217H97.7446H100.906V34.4042C100.906 33.8623 100.906 33.5011 100.815 33.3205C100.635 32.2367 100.183 31.5143 99.5509 30.7918C98.9187 30.1596 98.1962 29.7983 97.2028 29.6177C96.8415 29.5274 95.7578 29.5274 95.3062 29.6177ZM46.8995 34.4042V39.0101H48.6154H50.3313V34.4042V29.7983H48.6154H46.8995V34.4042ZM96.6609 32.1464C96.9318 32.2367 97.0221 32.3271 97.2931 32.5077C97.4737 32.6883 97.6543 32.8689 97.6543 33.1399V33.3205H96.119C94.4031 33.3205 94.4934 33.3205 94.674 32.9592C94.945 32.3271 95.7578 31.9658 96.6609 32.1464ZM67.4904 32.598C67.942 32.6883 68.4838 33.1399 68.6644 33.5914C69.116 34.5848 68.6644 35.7589 67.5807 36.1201C67.2195 36.2104 66.6776 36.2104 66.3164 36.1201C65.7745 35.9395 65.2326 35.4879 65.1423 34.9461C65.052 34.6751 65.052 34.5848 65.052 34.3139C65.052 33.9527 65.052 33.8623 65.2326 33.5914C65.5939 32.7786 66.497 32.4174 67.4904 32.598Z" fill="white"/>
</svg>
